<svg width="50" height="50" viewBox="0 0 50 50" fill="none" xmlns="http://www.w3.org/2000/svg">
<path d="M43.75 18.75C43.1975 18.75 42.6676 18.9695 42.2769 19.3602C41.8862 19.7509 41.6667 20.2808 41.6667 20.8333V29.1667C41.6667 29.7192 41.8862 30.2491 42.2769 30.6398C42.6676 31.0305 43.1975 31.25 43.75 31.25C44.3025 31.25 44.8324 31.0305 45.2231 30.6398C45.6138 30.2491 45.8333 29.7192 45.8333 29.1667V20.8333C45.8333 20.2808 45.6138 19.7509 45.2231 19.3602C44.8324 18.9695 44.3025 18.75 43.75 18.75Z" fill="#FC9918"/>
<path d="M32.9792 12.5H26.5208L24.1458 16.6667H32.9583C33.0889 16.7743 33.1913 16.9121 33.2566 17.0682C33.322 17.2243 33.3483 17.394 33.3333 17.5625V32.4375C33.3474 32.604 33.3227 32.7715 33.2613 32.9269C33.1999 33.0824 33.1033 33.2214 32.9792 33.3333H27.0833L24.6875 37.5H33.0208C34.283 37.4142 35.4606 36.835 36.2989 35.8875C37.1371 34.9401 37.5686 33.7007 37.5 32.4375V17.5625C37.5683 16.2925 37.1311 15.0472 36.284 14.0986C35.4369 13.15 34.2487 12.5752 32.9792 12.5Z" fill="#FC9918"/>
<path d="M8.33333 32.4375V17.5625C8.32085 17.3961 8.34623 17.2291 8.40757 17.0739C8.46891 16.9188 8.56462 16.7795 8.6875 16.6667H14.5833L16.9375 12.5H8.60417C7.34948 12.5962 6.18237 13.1799 5.35291 14.1262C4.52345 15.0725 4.09762 16.306 4.16667 17.5625V32.4375C4.09837 33.7075 4.53555 34.9528 5.38266 35.9014C6.22977 36.85 7.41793 37.4248 8.6875 37.5H15.1458L17.5208 33.3333H8.70833C8.57776 33.2257 8.47538 33.0879 8.41005 32.9318C8.34471 32.7757 8.31838 32.606 8.33333 32.4375Z" fill="#FC9918"/>
<path d="M18.75 41.6667C18.3836 41.6681 18.0233 41.5729 17.7054 41.3907C17.3876 41.2084 17.1234 40.9456 16.9396 40.6286C16.7557 40.3116 16.6587 39.9518 16.6584 39.5854C16.658 39.219 16.7543 38.859 16.9375 38.5417L23.5 27.0833H14.5833C14.2198 27.0811 13.8631 26.9838 13.5488 26.8011C13.2345 26.6184 12.9734 26.3565 12.7917 26.0417C12.6088 25.725 12.5126 25.3657 12.5126 25C12.5126 24.6343 12.6088 24.275 12.7917 23.9583L21.125 9.375C21.4013 8.89429 21.8572 8.54303 22.3924 8.39847C22.9277 8.25391 23.4985 8.3279 23.9792 8.60417C24.4599 8.88043 24.8111 9.33634 24.9557 9.8716C25.1003 10.4069 25.0263 10.9776 24.75 11.4583L18.1667 22.9167H27.0833C27.4469 22.9189 27.8036 23.0162 28.1179 23.1989C28.4322 23.3816 28.6932 23.6435 28.875 23.9583C29.0578 24.275 29.1541 24.6343 29.1541 25C29.1541 25.3657 29.0578 25.725 28.875 26.0417L20.5417 40.625C20.3599 40.9399 20.0989 41.2017 19.7846 41.3844C19.4702 41.5672 19.1136 41.6645 18.75 41.6667Z" fill="#FC9918"/>
</svg>
